<svg id="Laag_1" data-name="Laag 1" xmlns="http://www.w3.org/2000/svg" viewBox="0 0 500 250"><title>Enrise logo black on yellow kopie</title><path d="M93.48,90.88V159.8H162.4V90.88Zm54,53.81H132.52V120.76h-24.1V105.65h39v39Z"/><polygon points="188.68 160.07 188.68 153.34 193.81 153.34 193.81 97.52 188.68 97.52 188.68 90.78 222.57 90.78 222.57 109.48 213.93 109.48 213.93 97.52 202.44 97.52 202.44 120.68 215.83 120.68 215.83 127.42 202.44 127.42 202.44 153.34 214.03 153.34 214.03 141.09 222.66 141.09 222.66 160.07 188.68 160.07 188.68 160.07 188.68 160.07"/><polygon points="263.1 97.52 263.1 160.07 255.88 160.07 240.13 113.47 240.13 153.34 244.78 153.34 244.78 160.07 227.31 160.07 227.31 153.34 232.44 153.34 232.44 97.52 227.31 97.52 227.31 90.78 240.41 90.78 255.41 135.3 255.41 97.52 250.76 97.52 250.76 90.78 268.22 90.78 268.22 97.52 263.1 97.52 263.1 97.52 263.1 97.52"/><path d="M305.18,160.08c-4.55,0-7.4-1.71-7.4-8.26v-16.9c0-3.89-1.52-6.45-6.55-6.45h-5.32v24.87h4.94v6.74h-18.7v-6.74h5.13V97.52h-5.13V90.78h20c9.77,0,14.14,4,14.14,12.82v12c0,5.31-2,8.45-7.31,9.59,4.84,1.13,7.41,4.08,7.41,9.3v16.23c0,2.09.47,2.66,2.46,2.66H311v6.74Zm-7.5-56.1c0-3.89-1.52-6.46-6.55-6.46h-5.22v24.21h5.22c4.94,0,6.55-2.38,6.55-6.46V104Z"/><polygon points="314.81 160.07 314.81 153.34 319.94 153.34 319.94 97.52 314.81 97.52 314.81 90.78 333.7 90.78 333.7 97.52 328.58 97.52 328.58 153.34 333.7 153.34 333.7 160.07 314.81 160.07 314.81 160.07 314.81 160.07"/><path d="M353.21,160.93c-9.21,0-14.62-2.66-14.62-11.86v-8h8.64V149c0,3.8,1.42,5.22,6,5.22,4.17,0,6-1,6-5.22V133.4c0-3.13-.48-3.7-3.8-4.36l-8.26-1.24c-5.88-.76-8.35-3-8.35-10v-16c0-8.06,4.37-11.86,14.43-11.86,8.92,0,14.43,3.13,14.43,11.86v7.69H359v-7.59c0-3.7-1.52-5.22-5.79-5.22-3.7,0-5.79,1.14-5.79,5.22v13.86c0,3.32.66,3.8,3.79,4.37l8.26,1.23c5.79.76,8.35,3.13,8.35,10v17.75c0,8.35-4.74,11.86-14.61,11.86Z"/><polygon points="372.54 160.07 372.54 153.34 377.67 153.34 377.67 97.52 372.54 97.52 372.54 90.78 406.43 90.78 406.43 109.48 397.79 109.48 397.79 97.52 386.3 97.52 386.3 120.68 399.69 120.68 399.69 127.42 386.3 127.42 386.3 153.34 397.88 153.34 397.88 141.09 406.52 141.09 406.52 160.07 372.54 160.07 372.54 160.07 372.54 160.07"/></svg>